<?xml version="1.0" standalone="no"?>
<svg version="1.0" xmlns="http://www.w3.org/2000/svg" viewBox="0 0 300 300"
 preserveAspectRatio="xMidYMid meet">

<g transform="translate(0.000000,300.000000) scale(0.100000,-0.100000)"
fill="#000000" stroke="none">
<path d="M1335 2978 c-543 -61 -1017 -424 -1219 -933 -268 -680 -1 -1451 635
-1830 252 -149 585 -224 875 -196 368 36 677 181 934 441 189 190 321 427 384
689 155 641 -124 1295 -697 1637 -261 155 -603 227 -912 192z m400 -85 c368
-57 724 -285 938 -601 60 -90 136 -246 172 -356 90 -276 90 -596 0 -872 -119
-364 -371 -656 -714 -829 -327 -164 -720 -193 -1067 -80 -299 98 -563 296
-737 553 -60 90 -136 246 -172 356 -90 276 -90 596 0 872 119 363 371 656 713
828 271 136 553 178 867 129z"/>
<path d="M1427 2324 c-4 -4 -7 -115 -7 -246 l0 -238 -60 0 -60 0 0 -40 0 -40
60 0 60 0 0 -160 0 -160 -60 0 -60 0 0 -40 0 -40 100 0 100 0 -2 483 -3 482
-30 3 c-17 2 -34 0 -38 -4z"/>
<path d="M1550 1845 l0 -485 35 0 35 0 0 240 0 239 63 3 62 3 3 38 3 37 -65 0
-66 0 0 160 0 159 63 3 62 3 0 40 0 40 -97 3 -98 3 0 -486z"/>
<path d="M987 1114 c-4 -4 -7 -108 -7 -231 0 -216 1 -223 20 -223 19 0 20 7
20 115 l0 115 30 0 c20 0 30 5 30 15 0 10 -10 15 -30 15 l-30 0 0 80 0 80 31
0 c24 0 30 4 27 18 -2 12 -14 18 -43 20 -23 2 -44 0 -48 -4z"/>
<path d="M1126 1095 c-13 -20 -16 -56 -16 -213 0 -170 2 -191 18 -205 26 -24
79 -22 92 2 6 12 10 97 10 208 0 154 -3 193 -16 211 -21 31 -67 29 -88 -3z
m64 -205 c0 -183 -1 -190 -20 -190 -19 0 -20 7 -20 190 0 183 1 190 20 190 19
0 20 -7 20 -190z"/>
<path d="M1277 1114 c-4 -4 -7 -108 -7 -231 0 -216 1 -223 20 -223 19 0 20 7
20 115 l0 115 30 0 c20 0 30 5 30 15 0 10 -10 15 -30 15 l-30 0 0 80 0 80 31
0 c24 0 30 4 27 18 -2 12 -14 18 -43 20 -23 2 -44 0 -48 -4z"/>
<path d="M1416 1095 c-23 -35 -24 -379 0 -413 20 -29 79 -31 94 -3 6 12 10 97
10 208 0 154 -3 193 -16 211 -21 31 -67 29 -88 -3z m72 -207 l2 -188 -25 0
-25 0 0 191 0 190 23 -3 c22 -3 22 -5 25 -190z"/>
<path d="M1577 1113 c-4 -3 -7 -107 -7 -230 0 -216 1 -223 20 -223 19 0 20 7
20 115 0 108 1 115 20 115 19 0 20 -7 20 -115 0 -108 1 -115 20 -115 19 0 20
7 20 109 0 85 -3 111 -15 121 -14 12 -14 15 0 30 10 11 15 38 15 87 0 60 -3
73 -23 91 -22 21 -76 30 -90 15z m73 -113 c0 -73 -2 -80 -20 -80 -18 0 -20 7
-20 80 0 73 2 80 20 80 18 0 20 -7 20 -80z"/>
<path d="M1740 904 c0 -195 2 -218 18 -230 25 -19 66 -17 86 5 14 16 16 43 14
227 -3 190 -5 209 -20 212 -17 3 -18 -12 -18 -207 0 -204 -1 -211 -20 -211
-19 0 -20 8 -22 207 -3 189 -5 208 -20 211 -17 3 -18 -12 -18 -214z"/>
<path d="M1910 891 c0 -224 1 -231 20 -231 18 0 20 7 21 83 l0 82 15 -39 c8
-22 16 -42 19 -44 2 -3 13 15 24 39 l20 44 0 -82 c1 -76 3 -83 21 -83 19 0 20
7 20 225 0 194 -2 226 -15 232 -9 3 -18 3 -21 0 -3 -3 -12 -49 -20 -103 -23
-161 -25 -162 -48 -24 -17 101 -24 126 -38 128 -17 3 -18 -13 -18 -227z"/>
</g>
</svg>
